<svg viewBox="0 0 144 45">
  <path d="M3.91928 9.18104C2.93237 7.88364 2.17162 6.42147 1.57535 4.87694C1.45199 4.52685 1.32862 4.15617 1.26694 3.78548C1.10245 2.4057 2.02769 1.23186 3.42583 1.04651C4.74172 0.861168 5.58471 1.35542 6.13985 2.54985C6.46882 3.25004 6.7978 3.95023 7.14733 4.65042C7.29125 4.91814 7.4763 5.16526 7.64079 5.43298C7.78471 5.33001 7.86696 5.26822 7.9492 5.18585C10.6221 2.65282 13.8502 1.23186 17.4072 0.4287C19.1548 0.0374184 20.9436 -0.0655554 22.7324 0.0374133C25.0558 0.160976 27.2764 0.737606 29.2296 2.0762C31.2651 3.47657 32.4371 5.39179 32.8072 7.82185C33.0539 9.40757 32.9306 10.9727 32.396 12.476C31.738 14.3089 30.4838 15.6475 28.8801 16.6566C27.1735 17.7274 25.3025 18.2629 23.3081 18.4894C19.4221 18.9013 15.7417 18.1805 12.2258 16.533C10.7043 15.8122 9.32677 14.8855 8.09313 13.7323C7.96976 13.6293 7.8464 13.5263 7.66135 13.3616C7.43518 13.7323 7.18845 14.0618 7.02396 14.3913C4.26882 19.7662 4.28938 25.1618 7.12677 30.475C9.59406 35.0674 13.4184 38.0741 18.5175 39.1861C28.5922 41.3897 37.4745 34.5319 39.2016 25.7796C40.2708 20.3634 39.0166 15.5239 35.5212 11.261C34.925 10.5402 34.5138 9.77826 34.781 8.81035C35.0689 7.73948 35.8091 7.08048 36.8782 6.85394C37.968 6.60682 38.811 7.01869 39.4895 7.86304C41.3399 10.2107 42.7175 12.8261 43.6016 15.6887C44.4241 18.3247 44.7325 21.043 44.5269 23.782C43.7456 34.4907 35.9324 41.9663 27.3175 44.0257C26.0633 44.3346 24.7885 44.4787 23.4932 44.5405C18.3735 44.8494 13.7062 43.5108 9.55294 40.5453C4.4333 36.9826 1.34918 31.9989 0.300584 25.8208C-0.460166 21.3931 0.259462 17.1096 2.04825 13.0115C2.58283 11.7347 3.26134 10.5196 3.91928 9.18104ZM10.766 9.32519C11.3417 9.90182 11.8352 10.4784 12.4315 10.9315C15.5567 13.341 19.0932 14.2883 22.9997 13.8558C24.1511 13.7323 25.2203 13.3204 26.1866 12.6408C28.181 11.261 28.6539 7.9866 26.3306 6.21554C25.3848 5.49476 24.295 5.0417 23.1231 4.85635C20.409 4.40329 17.7978 4.79457 15.2894 5.94782C13.5623 6.70979 12.0614 7.78066 10.766 9.32519ZM79.3774 21.4961C79.3774 20.9195 79.3774 20.3428 79.3774 19.7662C79.3568 19.1484 79.2746 18.5512 78.8017 18.0775C78.1026 17.3773 76.7045 17.1714 75.697 17.6039C74.7307 18.0158 74.4223 18.7777 74.4223 19.8074C74.4428 27.2829 74.4428 34.7379 74.4428 42.2134C74.4428 42.3782 74.4428 42.5429 74.4428 42.7077C74.4634 43.2843 74.7101 43.7579 75.183 44.0874C76.1494 44.7258 77.1568 44.767 78.2054 44.314C79.1924 43.8609 79.398 42.996 79.3774 42.0281C79.3774 41.5956 79.3774 41.1837 79.3774 40.7513C79.3774 37.3739 79.3568 34.0171 79.3774 30.6397C79.398 28.6627 79.8709 26.7681 80.8167 25.0176C82.0503 22.7523 83.9419 21.6609 86.512 21.6814C89.3083 21.702 91.3644 23.0818 92.413 25.6766C92.9475 26.974 93.1737 28.3538 93.1737 29.7336C93.1943 33.8318 93.1737 37.9299 93.1737 42.0281C93.1737 42.2546 93.1326 42.5223 93.1943 42.7282C93.2971 43.0783 93.3999 43.4696 93.6055 43.7579C94.2017 44.5405 95.5793 44.8082 96.669 44.4169C97.6971 44.0462 98.1083 43.4078 98.1083 42.1722C98.1083 38.6301 98.1083 35.1086 98.1083 31.5664C98.1083 30.7015 98.1494 29.816 98.2728 28.9716C98.499 27.3241 99.013 25.7796 99.9382 24.3792C100.802 23.0612 102.015 22.1963 103.557 21.8668C104.277 21.7226 105.058 21.6608 105.798 21.702C107.649 21.7844 109.191 22.5258 110.321 24.0703C110.897 24.8529 111.288 25.7384 111.535 26.6857C111.863 27.9214 111.966 29.1776 111.966 30.4544C111.966 34.4496 111.987 38.4653 111.966 42.4605C111.966 43.4696 112.542 44.1904 113.385 44.3963C113.899 44.5405 114.454 44.5817 114.989 44.5199C116.243 44.3757 116.88 43.5726 116.88 42.3164C116.88 38.0947 116.901 33.8935 116.88 29.6718C116.88 27.8596 116.572 26.0679 115.914 24.3586C114.968 21.9492 113.549 19.9104 111.226 18.6336C109.52 17.6863 107.669 17.3773 105.716 17.3773C103.084 17.3979 100.863 18.3659 98.9718 20.1369C98.0261 21.0224 97.3064 22.1139 96.6279 23.3495C94.9214 19.9516 92.3513 17.8098 88.5475 17.4185C84.7438 17.0273 81.7008 18.3453 79.4802 21.5373C79.4597 21.5579 79.4185 21.5167 79.3774 21.4961ZM52.854 20.7959C52.854 15.7298 52.854 10.6638 52.854 5.61832C52.854 5.43298 52.854 5.24764 52.854 5.06229C52.7923 4.11498 52.34 3.47657 51.4353 3.16767C50.7979 2.94113 50.14 2.94114 49.482 3.08529C48.3512 3.35301 47.796 4.07379 47.7755 5.26823C47.7755 5.39179 47.7755 5.49476 47.7755 5.61832C47.7755 17.748 47.7755 29.8778 47.7755 41.9869C47.7755 42.2752 47.7549 42.5635 47.8166 42.8312C47.8988 43.1607 48.0428 43.5108 48.2484 43.7785C48.9269 44.6023 50.3867 44.8494 51.5175 44.3963C52.4839 44.0051 52.854 43.3667 52.854 42.0898C52.854 38.3212 52.8334 34.5525 52.854 30.7839C52.854 28.9716 53.2446 27.2418 54.0465 25.5943C55.0951 23.4113 56.7605 22.0109 59.2278 21.7432C61.2017 21.5373 63.0316 21.8874 64.4708 23.3701C65.4372 24.3586 65.9512 25.5943 66.2802 26.9123C66.568 28.1273 66.6503 29.3835 66.6503 30.6191C66.6708 34.5525 66.6503 38.4859 66.6503 42.4193C66.6503 43.4902 67.0821 44.0874 68.0895 44.4169C68.7475 44.6435 69.426 44.6641 70.1045 44.4581C71.1737 44.1492 71.6466 43.5108 71.6671 42.3988C71.6671 38.1358 71.6877 33.8729 71.6671 29.61C71.6466 27.18 71.1531 24.8529 70.0222 22.6699C69.0148 20.7753 67.6578 19.2308 65.6634 18.3041C64.1624 17.6039 62.5792 17.3773 60.9344 17.3979C58.4671 17.4185 56.3493 18.2629 54.54 19.9104C53.9848 20.4046 53.5119 21.0019 52.8745 21.6814C52.854 21.2902 52.854 21.043 52.854 20.7959ZM124.118 32.9668C124.179 34.5113 124.611 35.8293 125.516 36.962C126.914 38.7331 128.744 39.7422 130.944 40.0717C133.884 40.5041 136.413 39.6598 138.531 37.5592C139.168 36.9208 139.908 36.5089 140.854 36.5295C142.211 36.5501 143.219 37.7446 142.993 39.1861C142.89 39.8657 142.561 40.4217 142.088 40.916C140.793 42.2546 139.25 43.2431 137.482 43.8403C134.439 44.8906 131.355 44.9936 128.271 44.0874C124.796 43.0783 122.164 40.9572 120.602 37.6828C118.566 33.4611 118.381 29.0746 120.232 24.7705C122.041 20.5076 125.454 18.1805 130.039 17.5627C132.507 17.2332 134.871 17.5833 137.112 18.6748C140.854 20.487 142.993 23.5555 143.733 27.5918C143.918 28.5597 143.918 29.5483 144 30.5368C144 30.6397 144 30.7221 144 30.8251C143.897 32.349 143.239 32.9668 141.697 32.9668C136.125 32.9668 130.553 32.9668 124.981 32.9668C124.714 32.9668 124.447 32.9668 124.118 32.9668ZM124.035 28.292C129.073 28.292 134.069 28.292 139.045 28.292C139.065 26.7475 138.14 24.7499 136.865 23.679C134.378 21.6197 131.581 21.2078 128.6 22.2787C125.886 23.2878 124.385 25.3471 124.035 28.292Z"></path>
</svg>
